<svg width="20" height="20" viewBox="0 0 20 20" fill="none" xmlns="http://www.w3.org/2000/svg">
<path fill-rule="evenodd" clip-rule="evenodd" d="M6.857 17.6335C5.49618 17.6335 4.21618 17.1035 3.25368 16.141C1.267 14.1543 1.267 10.921 3.25368 8.93433L10.0495 2.13843L11.1104 3.20011L4.3145 9.99511C2.91286 11.3976 2.91286 13.6784 4.3145 15.0801C4.99368 15.7592 5.897 16.1334 6.857 16.1334C7.817 16.1334 8.72036 15.7592 9.3995 15.0801L16.1229 8.35675C16.9587 7.52093 16.9587 6.16175 16.1229 5.32593C15.3129 4.51511 13.9004 4.51761 13.092 5.32511L6.50786 11.9042C6.3695 12.0426 6.29368 12.2267 6.29368 12.4226C6.29368 12.6185 6.3695 12.8026 6.50868 12.9409C6.78536 13.2201 7.2695 13.2184 7.54618 12.9409L13.0737 7.41425L14.1345 8.47593L8.60786 14.0026C7.73536 14.8734 6.31868 14.8717 5.44786 14.0026C4.577 13.1317 4.577 11.7134 5.44786 10.8434L12.032 4.26515C12.7186 3.57765 13.6345 3.19847 14.6078 3.19847C15.5803 3.19847 16.4953 3.57679 17.1845 4.26515C18.6045 5.68597 18.6045 7.99765 17.1845 9.41847L10.4604 16.141C9.49786 17.1035 8.21868 17.6335 6.857 17.6335Z" fill="#FFD423"/>
</svg>
