<svg width="518" height="104" viewBox="0 0 518 104" fill="none" xmlns="http://www.w3.org/2000/svg">
<path d="M7.29289 103.707C7.68342 104.098 8.31658 104.098 8.70711 103.707L15.0711 97.3431C15.4616 96.9526 15.4616 96.3195 15.0711 95.9289C14.6805 95.5384 14.0474 95.5384 13.6569 95.9289L8 101.586L2.34315 95.9289C1.95262 95.5384 1.31946 95.5384 0.928932 95.9289C0.538408 96.3195 0.538408 96.9526 0.928932 97.3431L7.29289 103.707ZM8 103H9V99.125H8H7V103H8ZM8 91.375H9V83.625H8H7V91.375H8ZM8 75.875H9V68.125H8H7V75.875H8ZM8 60.375H9V52.625H8H7V60.375H8ZM8 44.875H9V37.125H8H7V44.875H8ZM8 29.375H9V21.625H8H7V29.375H8ZM8 13.875H9V10H8H7V13.875H8ZM8 10H9C9 8.91342 9.21607 7.87984 9.60665 6.93796L8.68293 6.55491L7.7592 6.17185C7.26968 7.35232 7 8.64593 7 10H8ZM13.5549 1.68292L13.938 2.60665C14.8799 2.21607 15.9134 2 17 2V1V0C15.6459 0 14.3523 0.26968 13.1719 0.759199L13.5549 1.68292ZM17 1V2H21.0403V1V0H17V1ZM29.121 1V2H37.2016V1V0H29.121V1ZM45.2823 1V2H53.3629V1V0H45.2823V1ZM61.4436 1V2H69.5242V1V0H61.4436V1ZM77.6049 1V2H85.6855V1V0H77.6049V1ZM93.7662 1V2H101.847V1V0H93.7662V1ZM109.927 1V2H118.008V1V0H109.927V1ZM126.089 1V2H134.169V1V0H126.089V1ZM142.25 1V2H150.331V1V0H142.25V1ZM158.411 1V2H166.492V1V0H158.411V1ZM174.573 1V2H182.653V1V0H174.573V1ZM190.734 1V2H198.814V1V0H190.734V1ZM206.895 1V2H214.976V1V0H206.895V1ZM223.056 1V2H231.137V1V0H223.056V1ZM239.218 1V2H247.298V1V0H239.218V1ZM255.379 1V2H263.46V1V0H255.379V1ZM271.54 1V2H279.621V1V0H271.54V1ZM287.702 1V2H295.782V1V0H287.702V1ZM303.863 1V2H311.944V1V0H303.863V1ZM320.024 1V2H328.105V1V0H320.024V1ZM336.186 1V2H344.266V1V0H336.186V1ZM352.347 1V2H360.428V1V0H352.347V1ZM368.508 1V2H376.589V1V0H368.508V1ZM384.669 1V2H392.75V1V0H384.669V1ZM400.831 1V2H408.911V1V0H400.831V1ZM416.992 1V2H425.073V1V0H416.992V1ZM433.153 1V2H441.234V1V0H433.153V1ZM449.315 1V2H457.395V1V0H449.315V1ZM465.476 1V2H473.557V1V0H465.476V1ZM481.637 1V2H489.718V1V0H481.637V1ZM497.799 1V2H505.879V1V0H497.799V1ZM513.96 1V2H518V1V0H513.96V1Z" fill="#230448" fill-opacity="0.2"/>
</svg>
