<svg width="386" height="67" viewBox="0 0 386 67" fill="none" xmlns="http://www.w3.org/2000/svg">
<path d="M377.293 66.7071C377.683 67.0976 378.317 67.0976 378.707 66.7071L385.071 60.3431C385.462 59.9526 385.462 59.3195 385.071 58.9289C384.681 58.5384 384.047 58.5384 383.657 58.9289L378 64.5858L372.343 58.9289C371.953 58.5384 371.319 58.5384 370.929 58.9289C370.538 59.3195 370.538 59.9526 370.929 60.3431L377.293 66.7071ZM0 1.5V2.5H4.01087V1.5V0.5H0V1.5ZM12.0326 1.5V2.5H20.0543V1.5V0.5H12.0326V1.5ZM28.0761 1.5V2.5H36.0978V1.5V0.5H28.0761V1.5ZM44.1196 1.5V2.5H52.1413V1.5V0.5H44.1196V1.5ZM60.163 1.5V2.5H68.1848V1.5V0.5H60.163V1.5ZM76.2065 1.5V2.5H84.2283V1.5V0.5H76.2065V1.5ZM92.25 1.5V2.5H100.272V1.5V0.5H92.25V1.5ZM108.293 1.5V2.5H116.315V1.5V0.5H108.293V1.5ZM124.337 1.5V2.5H132.359V1.5V0.5H124.337V1.5ZM140.38 1.5V2.5H148.402V1.5V0.5H140.38V1.5ZM156.424 1.5V2.5H164.446V1.5V0.5H156.424V1.5ZM172.467 1.5V2.5H180.489V1.5V0.5H172.467V1.5ZM188.511 1.5V2.5H196.533V1.5V0.5H188.511V1.5ZM204.554 1.5V2.5H212.576V1.5V0.5H204.554V1.5ZM220.598 1.5V2.5H228.62V1.5V0.5H220.598V1.5ZM236.641 1.5V2.5H244.663V1.5V0.5H236.641V1.5ZM252.685 1.5V2.5H260.707V1.5V0.5H252.685V1.5ZM268.728 1.5V2.5H276.75V1.5V0.5H268.728V1.5ZM284.772 1.5V2.5H292.793V1.5V0.5H284.772V1.5ZM300.815 1.5V2.5H308.837V1.5V0.5H300.815V1.5ZM316.859 1.5V2.5H324.88V1.5V0.5H316.859V1.5ZM332.902 1.5V2.5H340.924V1.5V0.5H332.902V1.5ZM348.946 1.5V2.5H356.967V1.5V0.5H348.946V1.5ZM364.989 1.5V2.5H369V1.5V0.5H364.989V1.5ZM369 1.5V2.5C370.087 2.5 371.12 2.71607 372.062 3.10665L372.445 2.18293L372.828 1.2592C371.648 0.76968 370.354 0.5 369 0.5V1.5ZM377.317 7.05491L376.393 7.43796C376.784 8.37984 377 9.41342 377 10.5H378H379C379 9.14593 378.73 7.85232 378.241 6.67185L377.317 7.05491ZM378 10.5H377V15.125H378H379V10.5H378ZM378 24.375H377V33.625H378H379V24.375H378ZM378 42.875H377V52.125H378H379V42.875H378ZM378 61.375H377V66H378H379V61.375H378Z" fill="#230448" fill-opacity="0.2"/>
</svg>
