<svg width="293" height="107" viewBox="0 0 293 107" fill="none" xmlns="http://www.w3.org/2000/svg">
<path d="M284.293 106.707C284.683 107.098 285.317 107.098 285.707 106.707L292.071 100.343C292.462 99.9526 292.462 99.3195 292.071 98.9289C291.681 98.5384 291.047 98.5384 290.657 98.9289L285 104.586L279.343 98.9289C278.953 98.5384 278.319 98.5384 277.929 98.9289C277.538 99.3195 277.538 99.9526 277.929 100.343L284.293 106.707ZM0 1V2H4.05882V1V0H0V1ZM12.1765 1V2H20.2941V1V0H12.1765V1ZM28.4118 1V2H36.5294V1V0H28.4118V1ZM44.6471 1V2H52.7647V1V0H44.6471V1ZM60.8823 1V2H69V1V0H60.8823V1ZM77.1176 1V2H85.2353V1V0H77.1176V1ZM93.3529 1V2H101.471V1V0H93.3529V1ZM109.588 1V2H117.706V1V0H109.588V1ZM125.824 1V2H133.941V1V0H125.824V1ZM142.059 1V2H150.176V1V0H142.059V1ZM158.294 1V2H166.412V1V0H158.294V1ZM174.529 1V2H182.647V1V0H174.529V1ZM190.765 1V2H198.882V1V0H190.765V1ZM207 1V2H215.118V1V0H207V1ZM223.235 1V2H231.353V1V0H223.235V1ZM239.471 1V2H247.588V1V0H239.471V1ZM255.706 1V2H263.823V1V0H255.706V1ZM271.941 1V2H276V1V0H271.941V1ZM276 1V2C277.087 2 278.12 2.21607 279.062 2.60665L279.445 1.68292L279.828 0.759199C278.648 0.26968 277.354 0 276 0V1ZM284.317 6.55491L283.393 6.93796C283.784 7.87984 284 8.91342 284 10H285H286C286 8.64593 285.73 7.35232 285.241 6.17186L284.317 6.55491ZM285 10H284V14H285H286V10H285ZM285 22H284V30H285H286V22H285ZM285 38H284V46H285H286V38H285ZM285 54H284V62H285H286V54H285ZM285 70H284V78H285H286V70H285ZM285 86H284V94H285H286V86H285ZM285 102H284V106H285H286V102H285Z" fill="#230448" fill-opacity="0.2"/>
</svg>
