<svg width="40" height="40" viewBox="0 0 40 40" fill="none" xmlns="http://www.w3.org/2000/svg">
<path fill-rule="evenodd" clip-rule="evenodd" d="M10.0674 8.82935C10.597 6.95643 11.5892 5.01893 12.2124 3.89115C12.8929 2.66083 14.0974 1.75586 15.5602 1.53062C16.5774 1.37401 18.0919 1.21094 20.0003 1.21094C21.9088 1.21094 23.4233 1.37401 24.4396 1.53062C25.9025 1.75667 27.1069 2.66083 27.7875 3.89115C28.4107 5.01893 29.4029 6.95643 29.9325 8.82935C31.4066 8.95044 32.5917 9.0893 33.5265 9.22492C35.8572 9.56156 37.4863 11.4175 37.7244 13.6804C37.9012 15.366 38.0845 17.7314 38.1442 20.6384C38.0078 20.6586 37.8019 20.6868 37.517 20.7208C36.9058 20.7934 35.9347 20.8927 34.5163 20.9928C32.1961 21.1559 28.686 21.3198 23.6154 21.3747L23.6009 20.9702C23.5177 19.0674 22.0258 17.7677 20.2046 17.7604H19.7961C17.9748 17.7685 16.483 19.0674 16.3998 20.9702C16.3944 21.0978 16.3896 21.2323 16.3853 21.3739C11.3147 21.3206 7.80378 21.1559 5.48443 20.9928C4.48217 20.9261 3.48165 20.8354 2.48372 20.7208C2.27427 20.6961 2.06517 20.6687 1.85646 20.6384C1.9162 17.7322 2.10026 15.3668 2.27625 13.6796C2.5144 11.4175 4.14352 9.56237 6.47417 9.22492C7.66759 9.05635 8.86591 8.92443 10.0674 8.82935ZM16.1762 5.51945C17.0126 5.39029 18.3196 5.2474 20.0003 5.2474C21.6811 5.2474 22.9873 5.39109 23.8245 5.51945C23.9795 5.54367 24.1434 5.64216 24.2548 5.84398C24.6665 6.58992 25.1727 7.57966 25.5763 8.57505C23.7184 8.50714 21.8594 8.4743 20.0003 8.47656C17.9086 8.47656 16.0567 8.5137 14.4236 8.57505C14.8121 7.64059 15.2536 6.72902 15.7459 5.84479C15.8581 5.64297 16.0212 5.54448 16.177 5.52026M37.8052 23.1265L38.1644 23.0813C38.1466 26.6737 37.9303 29.5638 37.7244 31.5288C37.4871 33.7916 35.858 35.6476 33.5273 35.985C31.0384 36.3443 26.784 36.7326 20.0011 36.7326C13.2183 36.7326 8.96385 36.3451 6.47497 35.9842C4.14432 35.6476 2.51521 33.7916 2.27706 31.5288C2.0712 29.563 1.85565 26.6745 1.83789 23.0813C1.94284 23.0953 2.06259 23.1103 2.19714 23.1265C2.85104 23.2048 3.86339 23.3073 5.3149 23.409C7.69479 23.577 11.2606 23.7424 16.3845 23.7973L16.4006 24.2389C16.4838 26.1417 17.9757 27.4406 19.7969 27.4479H20.2054C22.0266 27.4406 23.5185 26.1417 23.6017 24.2389L23.6178 23.7973C28.7417 23.7424 32.3075 23.577 34.6874 23.4098C35.7288 23.3403 36.7683 23.2458 37.8052 23.1265ZM21.1822 24.1332C21.2 23.7174 21.2121 23.2129 21.2121 22.605C21.2121 21.9971 21.2 21.4925 21.1822 21.0768C21.158 20.5472 20.8076 20.1855 20.1941 20.1823H19.8058C19.193 20.1847 18.8427 20.5472 18.8193 21.076C18.8015 21.4917 18.7894 21.9963 18.7894 22.6042C18.7894 23.2121 18.8015 23.7166 18.8193 24.1324C18.8427 24.6611 19.193 25.0228 19.8058 25.0252H20.1949C20.8076 25.0236 21.158 24.6619 21.1814 24.1324" fill="#230448"/>
</svg>
