<svg width="24" height="24" viewBox="0 0 24 24" fill="none" xmlns="http://www.w3.org/2000/svg">
<g clip-path="url(#clip0_489_1029)">
<path fill-rule="evenodd" clip-rule="evenodd" d="M12.7064 15.707C12.5188 15.8945 12.2645 15.9998 11.9994 15.9998C11.7342 15.9998 11.4799 15.8945 11.2924 15.707L5.63537 10.05C5.53986 9.95776 5.46367 9.84742 5.41126 9.72541C5.35886 9.60341 5.33127 9.47219 5.33012 9.33941C5.32896 9.20663 5.35426 9.07495 5.40454 8.95205C5.45483 8.82916 5.52908 8.7175 5.62297 8.62361C5.71686 8.52972 5.82852 8.45547 5.95141 8.40519C6.07431 8.3549 6.20599 8.3296 6.33877 8.33076C6.47155 8.33191 6.60277 8.3595 6.72477 8.41191C6.84677 8.46431 6.95712 8.5405 7.04937 8.63601L11.9994 13.586L16.9494 8.63601C17.138 8.45385 17.3906 8.35305 17.6528 8.35533C17.915 8.35761 18.1658 8.46278 18.3512 8.64819C18.5366 8.8336 18.6418 9.08441 18.644 9.34661C18.6463 9.6088 18.5455 9.86141 18.3634 10.05L12.7064 15.707Z" fill="#230448"/>
</g>
<defs>
<clipPath id="clip0_489_1029">
<rect width="24" height="24" fill="white"/>
</clipPath>
</defs>
</svg>
