<svg width="32" height="32" viewBox="0 0 32 32" fill="none" xmlns="http://www.w3.org/2000/svg">
<path fill-rule="evenodd" clip-rule="evenodd" d="M25.1354 8.60167C25.2494 8.48779 25.3399 8.35257 25.4016 8.20372C25.4634 8.05487 25.4952 7.89531 25.4953 7.73416C25.4954 7.57301 25.4638 7.41341 25.4022 7.26449C25.3406 7.11557 25.2503 6.98023 25.1364 6.86621C25.0226 6.75218 24.8873 6.66171 24.7385 6.59995C24.5896 6.53819 24.4301 6.50635 24.2689 6.50625C24.1078 6.50615 23.9482 6.53779 23.7993 6.59937C23.6503 6.66095 23.515 6.75126 23.401 6.86514L16.0004 14.2657L8.60204 6.86514C8.37176 6.63486 8.05944 6.50549 7.73377 6.50549C7.40811 6.50549 7.09579 6.63486 6.86551 6.86514C6.63523 7.09542 6.50586 7.40774 6.50586 7.73341C6.50586 8.05907 6.63523 8.3714 6.86551 8.60167L14.266 16.0001L6.86551 23.3985C6.75148 23.5125 6.66104 23.6479 6.59933 23.7968C6.53762 23.9458 6.50586 24.1055 6.50586 24.2667C6.50586 24.428 6.53762 24.5877 6.59933 24.7366C6.66104 24.8856 6.75148 25.021 6.86551 25.135C7.09579 25.3653 7.40811 25.4947 7.73377 25.4947C7.89503 25.4947 8.0547 25.4629 8.20368 25.4012C8.35265 25.3395 8.48802 25.249 8.60204 25.135L16.0004 17.7345L23.401 25.135C23.6313 25.365 23.9435 25.4941 24.2689 25.4939C24.5944 25.4937 24.9064 25.3642 25.1364 25.1339C25.3664 24.9037 25.4955 24.5915 25.4953 24.266C25.4951 23.9405 25.3657 23.6285 25.1354 23.3985L17.7348 16.0001L25.1354 8.60167Z" fill="white"/>
</svg>
