<svg width="22" height="22" viewBox="0 0 22 22" fill="none" xmlns="http://www.w3.org/2000/svg">
<path d="M6.77501 15.1603C5.50219 14.2627 4.5482 12.9832 4.05126 11.5071C3.55432 10.031 3.54025 8.43507 4.01107 6.95045C4.4819 5.46583 5.41318 4.16967 6.66998 3.24977C7.92677 2.32986 9.44381 1.83398 11.0013 1.83398C12.5588 1.83398 14.0758 2.32986 15.3326 3.24977C16.5894 4.16967 17.5207 5.46583 17.9915 6.95045C18.4624 8.43507 18.4483 10.031 17.9513 11.5071C17.4544 12.9832 16.5004 14.2627 15.2276 15.1603L17.137 19.5237C17.1677 19.5935 17.1804 19.6699 17.1741 19.7459C17.1678 19.8219 17.1426 19.8952 17.1008 19.959C17.059 20.0228 17.002 20.0752 16.9348 20.1114C16.8677 20.1476 16.7925 20.1664 16.7163 20.1663H5.28543C5.20927 20.1664 5.13428 20.1475 5.06724 20.1114C5.0002 20.0752 4.94323 20.0229 4.90146 19.9592C4.8597 19.8956 4.83447 19.8225 4.82805 19.7466C4.82162 19.6707 4.83421 19.5944 4.86468 19.5246L6.77501 15.1603ZM12.9488 14.5251L14.1698 13.6625C15.1247 12.9895 15.8405 12.0299 16.2135 10.9228C16.5864 9.81569 16.5972 8.61857 16.2442 7.50494C15.8912 6.3913 15.1928 5.41899 14.2501 4.72891C13.3075 4.03884 12.1695 3.66685 11.0013 3.66685C9.83305 3.66685 8.69515 4.03884 7.7525 4.72891C6.80984 5.41899 6.1114 6.3913 5.7584 7.50494C5.40539 8.61857 5.41616 9.81569 5.78914 10.9228C6.16212 12.0299 6.87793 12.9895 7.83284 13.6625L9.05293 14.5251L7.38734 18.3329H14.6143L12.9488 14.5251ZM7.44326 10.0554L9.22159 9.61083C9.32028 10.0081 9.54907 10.3609 9.87152 10.613C10.194 10.8652 10.5915 11.0021 11.0008 11.0021C11.4102 11.0021 11.8077 10.8652 12.1302 10.613C12.4526 10.3609 12.6814 10.0081 12.7801 9.61083L14.5584 10.0554C14.359 10.8479 13.9007 11.551 13.2562 12.0534C12.6118 12.5558 11.818 12.8287 11.0008 12.8287C10.1837 12.8287 9.38992 12.5558 8.74545 12.0534C8.10097 11.551 7.64268 10.8479 7.44326 10.0554Z" fill="#F47E3F"/>
</svg>
