<svg width="22" height="22" viewBox="0 0 22 22" fill="none" xmlns="http://www.w3.org/2000/svg">
<path fill-rule="evenodd" clip-rule="evenodd" d="M4.94534 2.29291C6.25709 2.18016 8.27559 2.06283 11.0013 2.06283C11.2978 2.06283 11.7548 2.0642 12.1641 2.06695C12.5001 2.06878 12.8007 2.12974 13.0533 2.24891C14.1927 2.78745 15.2473 3.5712 16.1534 4.48099C17.0655 5.39628 17.8974 6.47703 18.3988 7.61691C18.4929 7.83232 18.5421 8.08991 18.5464 8.38966C18.5574 9.18853 18.5638 10.1996 18.5638 11.0003C18.5638 14.5497 18.4387 16.9573 18.3227 18.4258C18.2673 19.127 17.7475 19.6486 17.0577 19.7077C15.7455 19.8205 13.727 19.9378 11.0013 19.9378C8.27559 19.9378 6.25709 19.8205 4.94534 19.7077C4.25509 19.6486 3.73534 19.127 3.68034 18.4258C3.56347 16.9573 3.4388 14.5497 3.4388 11.0003C3.4388 7.45099 3.56393 5.04337 3.67989 3.57487C3.73534 2.87362 4.25555 2.35203 4.94534 2.29291ZM11.0013 0.229492C8.22289 0.229492 6.15214 0.348659 4.78814 0.465992C3.19818 0.602576 1.97809 1.84191 1.85251 3.43049C1.73243 4.95216 1.60547 7.40883 1.60547 11.0003C1.60547 14.5923 1.73243 17.0485 1.85251 18.5702C1.97809 20.1587 3.19818 21.3981 4.78814 21.5347C6.15214 21.6515 8.22289 21.7712 11.0013 21.7712C13.7797 21.7712 15.8505 21.652 17.2145 21.5347C18.8044 21.3976 20.0245 20.1587 20.1501 18.5702C20.2702 17.0485 20.3971 14.5918 20.3971 11.0003C20.3971 10.1918 20.3907 9.17249 20.3793 8.36399C20.3728 7.88824 20.2945 7.37399 20.0768 6.87899C19.4557 5.46687 18.4643 4.20278 17.4523 3.18666C16.4211 2.15174 15.1964 1.23416 13.8361 0.591575C13.2939 0.334909 12.7191 0.236826 12.176 0.233617C11.7844 0.231107 11.3929 0.229732 11.0013 0.229492ZM12.6421 5.74645C13.6316 5.55344 14.6399 5.47364 15.6474 5.50857C15.8093 5.51374 15.9631 5.58034 16.0776 5.69485C16.1921 5.80936 16.2587 5.96318 16.2639 6.12503C16.2987 7.13259 16.2187 8.14084 16.0256 9.13033C15.9192 9.66932 15.2684 9.82608 14.9003 9.45803L14.398 8.95616C13.8113 9.4837 12.9845 10.2826 12.3351 11.1222C11.6636 11.9903 10.1859 11.9298 9.70651 10.7991C9.45213 10.1992 9.10472 9.40762 8.78159 8.75908C8.30768 9.13949 7.6188 9.82882 6.82268 11.0462C6.74849 11.1595 6.65271 11.2571 6.54081 11.3334C6.4289 11.4097 6.30305 11.4633 6.17046 11.491C6.03786 11.5187 5.90111 11.5199 5.76801 11.4948C5.63491 11.4696 5.50808 11.4185 5.39474 11.3443C5.2814 11.2701 5.18379 11.1743 5.10747 11.0624C5.03115 10.9505 4.97762 10.8247 4.94993 10.6921C4.92225 10.5595 4.92095 10.4227 4.94611 10.2896C4.97128 10.1565 5.02241 10.0297 5.09659 9.91637C6.36068 7.98449 7.4868 7.07608 8.1963 6.65808C9.0158 6.17499 9.93797 6.55999 10.3257 7.26124C10.6305 7.81262 10.9697 8.54091 11.2575 9.19037C11.7858 8.59478 12.3468 8.02894 12.9378 7.49545L12.3144 6.87212C11.9459 6.50408 12.1036 5.85324 12.6421 5.74645ZM5.95964 13.1774C5.68613 13.1774 5.42383 13.2861 5.23043 13.4795C5.03703 13.6729 4.92839 13.9352 4.92839 14.2087C4.92839 14.4822 5.03703 14.7445 5.23043 14.9379C5.42383 15.1313 5.68613 15.2399 5.95964 15.2399H16.043C16.3165 15.2399 16.5788 15.1313 16.7722 14.9379C16.9656 14.7445 17.0742 14.4822 17.0742 14.2087C17.0742 13.9352 16.9656 13.6729 16.7722 13.4795C16.5788 13.2861 16.3165 13.1774 16.043 13.1774H5.95964ZM5.95964 16.3857C5.68613 16.3857 5.42383 16.4944 5.23043 16.6878C5.03703 16.8812 4.92839 17.1435 4.92839 17.417C4.92839 17.6905 5.03703 17.9528 5.23043 18.1462C5.42383 18.3396 5.68613 18.4482 5.95964 18.4482H16.043C16.3165 18.4482 16.5788 18.3396 16.7722 18.1462C16.9656 17.9528 17.0742 17.6905 17.0742 17.417C17.0742 17.1435 16.9656 16.8812 16.7722 16.6878C16.5788 16.4944 16.3165 16.3857 16.043 16.3857H5.95964Z" fill="#F4C400"/>
</svg>
