<svg width="22" height="22" viewBox="0 0 22 22" fill="none" xmlns="http://www.w3.org/2000/svg">
<path d="M9.16536 3.66634C8.1929 3.66634 7.26027 4.05265 6.57264 4.74028C5.88501 5.42792 5.4987 6.36055 5.4987 7.33301C5.4987 8.30547 5.88501 9.2381 6.57264 9.92573C7.26027 10.6134 8.1929 10.9997 9.16536 10.9997C10.1378 10.9997 11.0705 10.6134 11.7581 9.92573C12.4457 9.2381 12.832 8.30547 12.832 7.33301C12.832 6.36055 12.4457 5.42792 11.7581 4.74028C11.0705 4.05265 10.1378 3.66634 9.16536 3.66634ZM3.66536 7.33301C3.66536 5.87432 4.24483 4.47537 5.27628 3.44392C6.30773 2.41247 7.70667 1.83301 9.16536 1.83301C10.6241 1.83301 12.023 2.41247 13.0545 3.44392C14.0859 4.47537 14.6654 5.87432 14.6654 7.33301C14.6654 8.7917 14.0859 10.1906 13.0545 11.2221C12.023 12.2535 10.6241 12.833 9.16536 12.833C7.70667 12.833 6.30773 12.2535 5.27628 11.2221C4.24483 10.1906 3.66536 8.7917 3.66536 7.33301ZM15.4244 3.44359C15.5095 3.35836 15.6106 3.29075 15.7219 3.24462C15.8332 3.19849 15.9524 3.17475 16.0729 3.17475C16.1934 3.17475 16.3127 3.19849 16.4239 3.24462C16.5352 3.29075 16.6363 3.35836 16.7214 3.44359C17.2323 3.95433 17.6375 4.56068 17.9139 5.22803C18.1904 5.89539 18.3327 6.61066 18.3327 7.33301C18.3327 8.05536 18.1904 8.77063 17.9139 9.43798C17.6375 10.1053 17.2323 10.7117 16.7214 11.2224C16.6363 11.3076 16.5352 11.3752 16.4239 11.4212C16.3126 11.4673 16.1934 11.4911 16.0729 11.4911C15.9525 11.4911 15.8332 11.4673 15.7219 11.4212C15.6106 11.3752 15.5095 11.3076 15.4244 11.2224C15.3392 11.1373 15.2716 11.0361 15.2255 10.9249C15.1795 10.8136 15.1557 10.6943 15.1557 10.5739C15.1557 10.4534 15.1795 10.3342 15.2255 10.2229C15.2716 10.1116 15.3392 10.0105 15.4244 9.92534C16.1118 9.23774 16.4979 8.30528 16.4979 7.33301C16.4979 6.36074 16.1118 5.42828 15.4244 4.74067C15.3391 4.65554 15.2715 4.55444 15.2254 4.44316C15.1793 4.33188 15.1555 4.2126 15.1555 4.09213C15.1555 3.97167 15.1793 3.85239 15.2254 3.7411C15.2715 3.62982 15.3391 3.52872 15.4244 3.44359ZM16.0679 15.3603C16.127 15.1246 16.2772 14.9221 16.4855 14.7972C16.6938 14.6722 16.9432 14.635 17.1789 14.6938C18.3962 14.9982 19.1671 15.7755 19.6099 16.6628C20.0389 17.5199 20.1654 18.4778 20.1654 19.2497C20.1654 19.4928 20.0688 19.7259 19.8969 19.8979C19.725 20.0698 19.4918 20.1663 19.2487 20.1663C19.0056 20.1663 18.7724 20.0698 18.6005 19.8979C18.4286 19.7259 18.332 19.4928 18.332 19.2497C18.332 18.6474 18.2294 18.0003 17.9709 17.4823C17.7261 16.9938 17.3503 16.6262 16.7343 16.4722C16.4987 16.4131 16.2961 16.2629 16.1712 16.0546C16.0462 15.8463 16.0091 15.596 16.0679 15.3603ZM5.95703 16.4997C4.80203 16.4997 3.66536 17.6116 3.66536 19.2497C3.66536 19.4928 3.56879 19.7259 3.39688 19.8979C3.22497 20.0698 2.99181 20.1663 2.7487 20.1663C2.50558 20.1663 2.27242 20.0698 2.10052 19.8979C1.92861 19.7259 1.83203 19.4928 1.83203 19.2497C1.83203 16.837 3.56728 14.6663 5.95703 14.6663H12.3737C14.7634 14.6663 16.4987 16.837 16.4987 19.2497C16.4987 19.4928 16.4021 19.7259 16.2302 19.8979C16.0583 20.0698 15.8251 20.1663 15.582 20.1663C15.3389 20.1663 15.1058 20.0698 14.9338 19.8979C14.7619 19.7259 14.6654 19.4928 14.6654 19.2497C14.6654 17.6116 13.5287 16.4997 12.3737 16.4997H5.95703Z" fill="#00A062"/>
</svg>
