<svg width="24" height="24" viewBox="0 0 24 24" fill="none" stroke="currentColor" xmlns="http://www.w3.org/2000/svg">
<path d="M13.5 3.25605V7.18007C13.5 7.71212 13.5 7.97814 13.6035 8.18136C13.6946 8.36011 13.84 8.50544 14.0187 8.59652C14.2219 8.70007 14.488 8.70007 15.02 8.70007H18.944M15.4 13.45H7.8M15.4 17.25H7.8M9.7 9.65H7.8M13.5 3H8.56C6.96385 3 6.16578 3 5.55613 3.31063C5.01987 3.58387 4.58387 4.01987 4.31063 4.55613C4 5.16578 4 5.96385 4 7.56V17.44C4 19.0361 4 19.8342 4.31063 20.4439C4.58387 20.9801 5.01987 21.4161 5.55613 21.6894C6.16578 22 6.96385 22 8.56 22H14.64C16.2361 22 17.0342 22 17.6439 21.6894C18.1801 21.4161 18.6161 20.9801 18.8894 20.4439C19.2 19.8342 19.2 19.0361 19.2 17.44V8.7L13.5 3Z" stroke="currentColor" stroke-opacity="0.8" stroke-width="1.9" stroke-linecap="round" stroke-linejoin="round"/>
</svg>
