<svg width="24" height="24" viewBox="0 0 24 24" fill="none" stroke="currentColor" xmlns="http://www.w3.org/2000/svg">
<path d="M5 4V10.025V10V20V4ZM5 22C4.45 22 3.97933 21.8043 3.588 21.413C3.19667 21.0217 3.00067 20.5507 3 20V4C3 3.45 3.196 2.97933 3.588 2.588C3.98 2.19667 4.45067 2.00067 5 2H12.175C12.4417 2 12.696 2.05 12.938 2.15C13.18 2.25 13.3923 2.39167 13.575 2.575L18.425 7.425C18.6083 7.60833 18.75 7.821 18.85 8.063C18.95 8.305 19 8.559 19 8.825V9.525C19 9.80833 18.904 10.0417 18.712 10.225C18.52 10.4083 18.2827 10.5 18 10.5C17.7173 10.5 17.48 10.404 17.288 10.212C17.096 10.02 17 9.78267 17 9.5V9H13C12.7167 9 12.4793 8.904 12.288 8.712C12.0967 8.52 12.0007 8.28267 12 8V4H5V20H10.5C10.7833 20 11.021 20.096 11.213 20.288C11.405 20.48 11.5007 20.7173 11.5 21C11.4993 21.2827 11.4033 21.5203 11.212 21.713C11.0207 21.9057 10.7833 22.0013 10.5 22H5ZM16.5 19C17.2 19 17.7917 18.7583 18.275 18.275C18.7583 17.7917 19 17.2 19 16.5C19 15.8 18.7583 15.2083 18.275 14.725C17.7917 14.2417 17.2 14 16.5 14C15.8 14 15.2083 14.2417 14.725 14.725C14.2417 15.2083 14 15.8 14 16.5C14 17.2 14.2417 17.7917 14.725 18.275C15.2083 18.7583 15.8 19 16.5 19ZM22.3 22.3C22.1167 22.4833 21.8833 22.575 21.6 22.575C21.3167 22.575 21.0833 22.4833 20.9 22.3L18.9 20.3C18.55 20.5333 18.171 20.7083 17.763 20.825C17.355 20.9417 16.934 21 16.5 21C15.25 21 14.1877 20.5627 13.313 19.688C12.4383 18.8133 12.0007 17.7507 12 16.5C11.9993 15.2493 12.437 14.187 13.313 13.313C14.189 12.439 15.2513 12.0013 16.5 12C17.7487 11.9987 18.8113 12.4363 19.688 13.313C20.5647 14.1897 21.002 15.252 21 16.5C21 16.9333 20.9417 17.3543 20.825 17.763C20.7083 18.1717 20.5333 18.5507 20.3 18.9L22.3 20.9C22.4833 21.0833 22.575 21.3167 22.575 21.6C22.575 21.8833 22.4833 22.1167 22.3 22.3Z" fill="none" fill-opacity="0.8"/>
</svg>
