<svg width="24" height="24" viewBox="0 0 24 24" fill="none" stroke="currentColor" xmlns="http://www.w3.org/2000/svg">
<path d="M11 9.87396C10.0574 9.63057 9.23582 9.05173 8.68941 8.24595C8.14299 7.44017 7.90922 6.46277 8.03189 5.49696C8.15457 4.53115 8.62527 3.64323 9.35578 2.99964C10.0863 2.35605 11.0264 2.00098 12 2.00098C12.9736 2.00098 13.9137 2.35605 14.6442 2.99964C15.3747 3.64323 15.8455 4.53115 15.9681 5.49696C16.0908 6.46277 15.857 7.44017 15.3106 8.24595C14.7642 9.05173 13.9427 9.63057 13 9.87396V12H17C17.5304 12 18.0392 12.2107 18.4142 12.5857C18.7893 12.9608 19 13.4695 19 14V16.126C19.9427 16.3694 20.7642 16.9482 21.3106 17.754C21.857 18.5597 22.0908 19.5371 21.9681 20.503C21.8455 21.4688 21.3747 22.3567 20.6442 23.0003C19.9137 23.6439 18.9736 23.9989 18 23.9989C17.0264 23.9989 16.0863 23.6439 15.3558 23.0003C14.6253 22.3567 14.1546 21.4688 14.0319 20.503C13.9092 19.5371 14.143 18.5597 14.6894 17.754C15.2358 16.9482 16.0574 16.3694 17 16.126V14H7.00001V16.126C7.94267 16.3694 8.7642 16.9482 9.31061 17.754C9.85702 18.5597 10.0908 19.5371 9.96813 20.503C9.84545 21.4688 9.37475 22.3567 8.64424 23.0003C7.91374 23.6439 6.97358 23.9989 6.00001 23.9989C5.02644 23.9989 4.08628 23.6439 3.35578 23.0003C2.62527 22.3567 2.15457 21.4688 2.03189 20.503C1.90922 19.5371 2.143 18.5597 2.68941 17.754C3.23582 16.9482 4.05735 16.3694 5.00001 16.126V14C5.00001 13.4695 5.21072 12.9608 5.5858 12.5857C5.96087 12.2107 6.46958 12 7.00001 12H11V9.87396ZM12 7.99996C12.5304 7.99996 13.0392 7.78925 13.4142 7.41417C13.7893 7.0391 14 6.53039 14 5.99996C14 5.46953 13.7893 4.96082 13.4142 4.58575C13.0392 4.21067 12.5304 3.99996 12 3.99996C11.4696 3.99996 10.9609 4.21067 10.5858 4.58575C10.2107 4.96082 10 5.46953 10 5.99996C10 6.53039 10.2107 7.0391 10.5858 7.41417C10.9609 7.78925 11.4696 7.99996 12 7.99996ZM6.00001 22C6.53044 22 7.03915 21.7892 7.41422 21.4142C7.7893 21.0391 8.00001 20.5304 8.00001 20C8.00001 19.4695 7.7893 18.9608 7.41422 18.5857C7.03915 18.2107 6.53044 18 6.00001 18C5.46958 18 4.96087 18.2107 4.5858 18.5857C4.21072 18.9608 4.00001 19.4695 4.00001 20C4.00001 20.5304 4.21072 21.0391 4.5858 21.4142C4.96087 21.7892 5.46958 22 6.00001 22ZM16 20C16 20.5304 16.2107 21.0391 16.5858 21.4142C16.9609 21.7892 17.4696 22 18 22C18.5304 22 19.0392 21.7892 19.4142 21.4142C19.7893 21.0391 20 20.5304 20 20C20 19.4695 19.7893 18.9608 19.4142 18.5857C19.0392 18.2107 18.5304 18 18 18C17.4696 18 16.9609 18.2107 16.5858 18.5857C16.2107 18.9608 16 19.4695 16 20Z" fill="none" fill-opacity="0.8"/>
</svg>
