<svg width="42" height="42" viewBox="0 0 42 42" fill="none" xmlns="http://www.w3.org/2000/svg">
<circle cx="21" cy="21" r="21" fill="#00A062" fill-opacity="0.21"/>
<path fill-rule="evenodd" clip-rule="evenodd" d="M20.606 11.0799C20.7305 11.0265 20.8645 10.999 21 10.999C21.1355 10.999 21.2695 11.0265 21.394 11.0799L27.788 13.8209C28.1478 13.9752 28.4545 14.2316 28.6699 14.5586C28.8854 14.8855 29.0002 15.2684 29 15.6599V22.5199C28.9999 23.7538 28.6736 24.9658 28.0542 26.033C27.4348 27.1002 26.5443 27.9847 25.473 28.5969L21.496 30.8689C21.3449 30.9552 21.174 31.0006 21 31.0006C20.826 31.0006 20.6551 30.9552 20.504 30.8689L16.527 28.5969C15.4554 27.9845 14.5647 27.0997 13.9453 26.0321C13.3259 24.9645 12.9998 23.7522 13 22.5179V15.6599C13 15.2686 13.1149 14.8858 13.3303 14.5591C13.5458 14.2324 13.8523 13.9761 14.212 13.8219L20.606 11.0799ZM24.707 19.7069C24.8892 19.5183 24.99 19.2657 24.9877 19.0035C24.9854 18.7413 24.8802 18.4905 24.6948 18.3051C24.5094 18.1197 24.2586 18.0145 23.9964 18.0122C23.7342 18.01 23.4816 18.1108 23.293 18.2929L20 21.5859L18.707 20.2929C18.5184 20.1108 18.2658 20.01 18.0036 20.0122C17.7414 20.0145 17.4906 20.1197 17.3052 20.3051C17.1198 20.4905 17.0146 20.7413 17.0123 21.0035C17.01 21.2657 17.1108 21.5183 17.293 21.7069L19.293 23.7069C19.4805 23.8944 19.7348 23.9997 20 23.9997C20.2652 23.9997 20.5195 23.8944 20.707 23.7069L24.707 19.7069Z" fill="#00A062"/>
</svg>
