<svg width="20" height="20" viewBox="0 0 20 20" fill="none" xmlns="http://www.w3.org/2000/svg">
<path d="M16.667 3.33325H3.33366C2.41699 3.33325 1.67533 4.08325 1.67533 4.99992L1.66699 14.9999C1.66699 15.9166 2.41699 16.6666 3.33366 16.6666H16.667C17.5837 16.6666 18.3337 15.9166 18.3337 14.9999V4.99992C18.3337 4.08325 17.5837 3.33325 16.667 3.33325ZM16.3337 6.87492L10.442 10.5583C10.1753 10.7249 9.82533 10.7249 9.55866 10.5583L3.66699 6.87492C3.58343 6.82801 3.51026 6.76464 3.4519 6.68863C3.39354 6.61262 3.35121 6.52557 3.32747 6.43273C3.30373 6.33989 3.29908 6.2432 3.31379 6.14851C3.3285 6.05382 3.36227 5.9631 3.41306 5.88184C3.46385 5.80058 3.5306 5.73046 3.60926 5.67575C3.68793 5.62103 3.77688 5.58284 3.87074 5.5635C3.96459 5.54416 4.06139 5.54406 4.15529 5.56321C4.24918 5.58236 4.33821 5.62036 4.41699 5.67492L10.0003 9.16658L15.5837 5.67492C15.6624 5.62036 15.7515 5.58236 15.8454 5.56321C15.9393 5.54406 16.0361 5.54416 16.1299 5.5635C16.2238 5.58284 16.3127 5.62103 16.3914 5.67575C16.4701 5.73046 16.5368 5.80058 16.5876 5.88184C16.6384 5.9631 16.6722 6.05382 16.6869 6.14851C16.7016 6.2432 16.6969 6.33989 16.6732 6.43273C16.6494 6.52557 16.6071 6.61262 16.5488 6.68863C16.4904 6.76464 16.4172 6.82801 16.3337 6.87492Z" fill="#230448"/>
</svg>
