<svg width="24" height="25" viewBox="0 0 24 25" fill="none" stroke="currentColor" xmlns="http://www.w3.org/2000/svg">
<path d="M7.11111 9.15C6.76482 9.15 6.47474 9.0348 6.24089 8.8044C6.00704 8.574 5.88971 8.2892 5.88889 7.95C5.88808 7.6108 6.00541 7.326 6.24089 7.0956C6.47637 6.8652 6.76645 6.75 7.11111 6.75H21.7778C22.1241 6.75 22.4146 6.8652 22.6492 7.0956C22.8839 7.326 23.0008 7.6108 23 7.95C22.9992 8.2892 22.8818 8.5744 22.648 8.8056C22.4141 9.0368 22.1241 9.1516 21.7778 9.15H7.11111ZM7.11111 13.95C6.76482 13.95 6.47474 13.8348 6.24089 13.6044C6.00704 13.374 5.88971 13.0892 5.88889 12.75C5.88808 12.4108 6.00541 12.126 6.24089 11.8956C6.47637 11.6652 6.76645 11.55 7.11111 11.55H21.7778C22.1241 11.55 22.4146 11.6652 22.6492 11.8956C22.8839 12.126 23.0008 12.4108 23 12.75C22.9992 13.0892 22.8818 13.3744 22.648 13.6056C22.4141 13.8368 22.1241 13.9516 21.7778 13.95H7.11111ZM7.11111 18.75C6.76482 18.75 6.47474 18.6348 6.24089 18.4044C6.00704 18.174 5.88971 17.8892 5.88889 17.55C5.88808 17.2108 6.00541 16.926 6.24089 16.6956C6.47637 16.4652 6.76645 16.35 7.11111 16.35H21.7778C22.1241 16.35 22.4146 16.4652 22.6492 16.6956C22.8839 16.926 23.0008 17.2108 23 17.55C22.9992 17.8892 22.8818 18.1744 22.648 18.4056C22.4141 18.6368 22.1241 18.7516 21.7778 18.75H7.11111ZM2.22223 9.15C1.87593 9.15 1.58586 9.0348 1.352 8.8044C1.11815 8.574 1.00082 8.2892 1 7.95C0.999189 7.6108 1.11652 7.326 1.352 7.0956C1.58749 6.8652 1.87756 6.75 2.22223 6.75C2.56689 6.75 2.85737 6.8652 3.09367 7.0956C3.32997 7.326 3.44689 7.6108 3.44445 7.95C3.442 8.2892 3.32467 8.5744 3.09245 8.8056C2.86023 9.0368 2.57015 9.1516 2.22223 9.15ZM2.22223 13.95C1.87593 13.95 1.58586 13.8348 1.352 13.6044C1.11815 13.374 1.00082 13.0892 1 12.75C0.999189 12.4108 1.11652 12.126 1.352 11.8956C1.58749 11.6652 1.87756 11.55 2.22223 11.55C2.56689 11.55 2.85737 11.6652 3.09367 11.8956C3.32997 12.126 3.44689 12.4108 3.44445 12.75C3.442 13.0892 3.32467 13.3744 3.09245 13.6056C2.86023 13.8368 2.57015 13.9516 2.22223 13.95ZM2.22223 18.75C1.87593 18.75 1.58586 18.6348 1.352 18.4044C1.11815 18.174 1.00082 17.8892 1 17.55C0.999189 17.2108 1.11652 16.926 1.352 16.6956C1.58749 16.4652 1.87756 16.35 2.22223 16.35C2.56689 16.35 2.85737 16.4652 3.09367 16.6956C3.32997 16.926 3.44689 17.2108 3.44445 17.55C3.442 17.8892 3.32467 18.1744 3.09245 18.4056C2.86023 18.6368 2.57015 18.7516 2.22223 18.75Z" fill="#230448" fill-opacity="0.5"/>
</svg>
