<svg width="42" height="42" viewBox="0 0 42 42" fill="none" xmlns="http://www.w3.org/2000/svg">
<path fill-rule="evenodd" clip-rule="evenodd" d="M21.0002 3.93402C13.9932 3.93402 9.82209 4.37502 7.47534 4.77402C5.19771 5.16252 3.57546 6.9309 3.32959 9.18927C3.12309 11.0906 2.91834 14.2433 2.91834 19.299C2.91834 22.8813 3.02159 25.5071 3.15459 27.4085H3.10209C1.58659 27.4085 0.348461 28.6712 0.444711 30.2068C0.503044 31.1179 0.561961 31.9241 0.621461 32.6253C0.840211 35.2415 2.83171 37.2759 5.47596 37.5139C8.44571 37.7817 13.3833 38.0634 21.0002 38.0634C28.6171 38.0634 33.5547 37.7817 36.5245 37.5139C39.1687 37.2759 41.1593 35.2415 41.379 32.6253C41.4385 31.9241 41.4974 31.1179 41.5557 30.2068C41.652 28.6712 40.4138 27.4085 38.8975 27.4085H38.8458C38.9788 25.5071 39.0821 22.8813 39.0821 19.299C39.0821 14.2433 38.8773 11.0915 38.6708 9.18927C38.4258 6.93177 36.8027 5.16252 34.5251 4.7749C32.1783 4.37502 28.0063 3.9349 21.0002 3.9349M35.3371 27.4094C35.4718 25.5929 35.5821 22.981 35.5821 19.2999C35.5821 14.3308 35.3808 11.3111 35.1918 9.56902C35.1122 8.84102 34.6493 8.34752 33.9371 8.2259C31.8371 7.86802 27.8707 7.4349 21.0002 7.4349C14.1297 7.4349 10.1642 7.86802 8.06334 8.2259C7.35196 8.34752 6.88821 8.84102 6.80946 9.56902C6.61959 11.3103 6.41921 14.3308 6.41921 19.2999C6.41921 22.981 6.52946 25.5929 6.66421 27.4094H14.5217C15.5297 27.4094 16.4292 28.0569 16.7355 29.0212C16.773 29.136 16.8462 29.236 16.9444 29.3064C17.0425 29.3769 17.1606 29.4143 17.2815 29.4132H24.719C24.8398 29.4143 24.9579 29.3769 25.0561 29.3064C25.1542 29.236 25.2274 29.136 25.265 29.0212C25.4151 28.5523 25.7105 28.1434 26.1085 27.8536C26.5065 27.5638 26.9864 27.4083 27.4787 27.4094H35.3371Z" fill="#9DFFD9"/>
</svg>
