<svg width="42" height="42" viewBox="0 0 42 42" fill="none" xmlns="http://www.w3.org/2000/svg">
<g clip-path="url(#clip0_386_276)">
<path d="M21 15.7487L14.875 9.62366L21 3.49866L27.125 9.62366L21 15.7487ZM1.75 34.9987V27.9987C1.75 27.007 2.093 26.1757 2.779 25.5049C3.465 24.8341 4.28867 24.4987 5.25 24.4987H10.9812C11.5646 24.4987 12.1187 24.6445 12.6438 24.9362C13.1687 25.2278 13.5917 25.6216 13.9125 26.1174C14.7583 27.2549 15.8013 28.1445 17.0415 28.7862C18.2817 29.4278 19.6012 29.7487 21 29.7487C22.4292 29.7487 23.7638 29.4278 25.004 28.7862C26.2442 28.1445 27.272 27.2549 28.0875 26.1174C28.4667 25.6216 28.9117 25.2278 29.4227 24.9362C29.9338 24.6445 30.4657 24.4987 31.0188 24.4987H36.75C37.7417 24.4987 38.5729 24.8341 39.2437 25.5049C39.9146 26.1757 40.25 27.007 40.25 27.9987V34.9987H28V31.0174C26.9792 31.7466 25.8778 32.3007 24.696 32.6799C23.5142 33.0591 22.2822 33.2487 21 33.2487C19.7458 33.2487 18.5208 33.0521 17.325 32.6589C16.1292 32.2657 15.0208 31.704 14 30.9737V34.9987H1.75ZM7 22.7487C5.54167 22.7487 4.30208 22.2382 3.28125 21.2174C2.26042 20.1966 1.75 18.957 1.75 17.4987C1.75 16.0112 2.26042 14.7646 3.28125 13.7589C4.30208 12.7532 5.54167 12.2498 7 12.2487C8.4875 12.2487 9.73467 12.7521 10.7415 13.7589C11.7483 14.7657 12.2512 16.0123 12.25 17.4987C12.25 18.957 11.7472 20.1966 10.7415 21.2174C9.73583 22.2382 8.48867 22.7487 7 22.7487ZM35 22.7487C33.5417 22.7487 32.3021 22.2382 31.2812 21.2174C30.2604 20.1966 29.75 18.957 29.75 17.4987C29.75 16.0112 30.2604 14.7646 31.2812 13.7589C32.3021 12.7532 33.5417 12.2498 35 12.2487C36.4875 12.2487 37.7347 12.7521 38.7415 13.7589C39.7483 14.7657 40.2512 16.0123 40.25 17.4987C40.25 18.957 39.7472 20.1966 38.7415 21.2174C37.7358 22.2382 36.4887 22.7487 35 22.7487Z" fill="#230448"/>
</g>
<defs>
<clipPath id="clip0_386_276">
<rect width="42" height="42" fill="white"/>
</clipPath>
</defs>
</svg>
