<svg width="24" height="24" viewBox="0 0 24 24" fill="none" stroke="currentColor" xmlns="http://www.w3.org/2000/svg">
<path d="M11.998 2C8.98997 2 7.03997 4.019 4.73397 4.755C3.79597 5.055 3.32697 5.204 3.13697 5.415C2.94697 5.625 2.89197 5.934 2.78097 6.55C1.59097 13.146 4.19097 19.244 10.391 21.618C11.056 21.873 11.389 22 12.001 22C12.613 22 12.947 21.872 13.613 21.617C19.812 19.244 22.409 13.146 21.219 6.55C21.108 5.934 21.052 5.625 20.862 5.414C20.672 5.203 20.204 5.054 19.266 4.755C16.959 4.019 15.006 2 11.998 2Z" stroke="currentColor" stroke-opacity="0.8" stroke-width="1.7" stroke-linecap="round" stroke-linejoin="round"/>
<path d="M10.2501 9.95946C10.2501 9.89946 10.2581 9.55346 10.2601 9.11946C10.2601 8.72146 10.2261 8.33946 10.4161 7.98946C11.1261 6.57546 13.1661 6.71946 13.6701 8.15946C13.7571 8.39646 13.7631 8.77146 13.7601 9.11946C13.7571 9.56246 13.7661 9.95946 13.7661 9.95946M10.3371 10.3805C9.25714 10.3805 8.71714 11.1605 8.59714 11.6405C8.47714 12.1205 8.47714 13.8605 8.54914 14.5805C8.78914 15.4805 9.38914 15.8525 9.97714 15.9725C10.5171 16.0205 12.7971 16.0025 13.4571 16.0025C14.4171 16.0205 15.1371 15.6605 15.4371 14.5805C15.4971 14.2205 15.5571 12.2405 15.4071 11.6405C15.0891 10.6805 14.2971 10.3805 13.6971 10.3805H10.3371Z" stroke="currentColor" stroke-opacity="0.8" stroke-width="1.7" stroke-linecap="round" stroke-linejoin="round"/>
</svg>
