<svg width="42" height="42" viewBox="0 0 42 42" fill="none" xmlns="http://www.w3.org/2000/svg">
<g clip-path="url(#clip0_386_319)">
<path d="M19.194 4.06746C19.7183 3.6846 20.3508 3.47827 21 3.47827C21.6492 3.47827 22.2817 3.6846 22.806 4.06746L35.7927 13.5455C37.5025 14.7915 36.6222 17.4952 34.5082 17.5005H7.49C5.376 17.4952 4.4975 14.7915 6.2055 13.5455L19.194 4.06746ZM22.75 10.9362C22.75 10.4721 22.5656 10.027 22.2374 9.69877C21.9092 9.37058 21.4641 9.18621 21 9.18621C20.5359 9.18621 20.0908 9.37058 19.7626 9.69877C19.4344 10.027 19.25 10.4721 19.25 10.9362C19.25 11.4003 19.4344 11.8455 19.7626 12.1736C20.0908 12.5018 20.5359 12.6862 21 12.6862C21.4641 12.6862 21.9092 12.5018 22.2374 12.1736C22.5656 11.8455 22.75 11.4003 22.75 10.9362ZM19.6875 27.9987H16.1875V19.2487H19.6875V27.9987ZM25.8125 27.9987H22.3125V19.2487H25.8125V27.9987ZM32.375 27.9987H28.4375V19.2487H32.375V27.9987ZM32.8125 29.7487H9.1875C8.14321 29.7487 7.14169 30.1635 6.40327 30.902C5.66484 31.6404 5.25 32.6419 5.25 33.6862V34.5612C5.25 35.2875 5.838 35.8737 6.5625 35.8737H35.4375C35.7856 35.8737 36.1194 35.7354 36.3656 35.4893C36.6117 35.2431 36.75 34.9093 36.75 34.5612V33.6862C36.75 32.6419 36.3352 31.6404 35.5967 30.902C34.8583 30.1635 33.8568 29.7487 32.8125 29.7487ZM13.5625 27.9987H9.625V19.2487H13.5625V27.9987Z" fill="#230448"/>
</g>
<defs>
<clipPath id="clip0_386_319">
<rect width="42" height="42" fill="white"/>
</clipPath>
</defs>
</svg>
