<svg width="24" height="25" viewBox="0 0 24 25" fill="none" stroke="currentColor" xmlns="http://www.w3.org/2000/svg">
<path d="M4 11.75H8C8.26522 11.75 8.51957 11.8554 8.70711 12.0429C8.89464 12.2304 9 12.4848 9 12.75V20.75C9 21.0152 8.89464 21.2696 8.70711 21.4571C8.51957 21.6446 8.26522 21.75 8 21.75H6C5.23479 21.75 4.49849 21.4577 3.94174 20.9327C3.38499 20.4078 3.04989 19.6899 3.005 18.926L3 18.75V12.75C3 12.4848 3.10536 12.2304 3.29289 12.0429C3.48043 11.8554 3.73478 11.75 4 11.75ZM21 12.75V18.75C21 19.5152 20.7077 20.2515 20.1827 20.8083C19.6578 21.365 18.9399 21.7001 18.176 21.745L18 21.75H12C11.7348 21.75 11.4804 21.6446 11.2929 21.4571C11.1054 21.2696 11 21.0152 11 20.75V12.75C11 12.4848 11.1054 12.2304 11.2929 12.0429C11.4804 11.8554 11.7348 11.75 12 11.75H20C20.2652 11.75 20.5196 11.8554 20.7071 12.0429C20.8946 12.2304 21 12.4848 21 12.75ZM18 3.75C18.7652 3.74996 19.5015 4.04233 20.0583 4.56728C20.615 5.09224 20.9501 5.81011 20.995 6.574L21 6.75V8.75C21 9.01522 20.8946 9.26957 20.7071 9.45711C20.5196 9.64464 20.2652 9.75 20 9.75H12C11.7348 9.75 11.4804 9.64464 11.2929 9.45711C11.1054 9.26957 11 9.01522 11 8.75V4.75C11 4.48478 11.1054 4.23043 11.2929 4.04289C11.4804 3.85536 11.7348 3.75 12 3.75H18ZM9 4.75V8.75C9 9.01522 8.89464 9.26957 8.70711 9.45711C8.51957 9.64464 8.26522 9.75 8 9.75H4C3.73478 9.75 3.48043 9.64464 3.29289 9.45711C3.10536 9.26957 3 9.01522 3 8.75V6.75C2.99996 5.98479 3.29233 5.24849 3.81728 4.69174C4.34224 4.13499 5.06011 3.79989 5.824 3.755L6 3.75H8C8.26522 3.75 8.51957 3.85536 8.70711 4.04289C8.89464 4.23043 9 4.48478 9 4.75Z" fill="#230448"/>
</svg>
