<svg width="42" height="42" viewBox="0 0 42 42" fill="none" xmlns="http://www.w3.org/2000/svg">
<circle cx="21" cy="21" r="21" fill="#00A062" fill-opacity="0.21"/>
<path d="M21 23V31H13C13 28.8783 13.8429 26.8434 15.3431 25.3431C16.8434 23.8429 18.8783 23 21 23ZM27 30.5L24.061 32.045L24.622 28.772L22.245 26.455L25.531 25.978L27 23L28.47 25.977L31.755 26.455L29.378 28.773L29.938 32.045L27 30.5ZM21 22C17.685 22 15 19.315 15 16C15 12.685 17.685 10 21 10C24.315 10 27 12.685 27 16C27 19.315 24.315 22 21 22Z" fill="#00A062"/>
</svg>
