<svg width="20" height="20" viewBox="0 0 20 20" fill="none" xmlns="http://www.w3.org/2000/svg">
<path d="M14.7141 4.42014C12.1108 1.8593 7.88996 1.8593 5.28662 4.42014C4.66852 5.024 4.17738 5.74533 3.84205 6.54173C3.50672 7.33813 3.33398 8.19352 3.33398 9.05764C3.33398 9.92175 3.50672 10.7771 3.84205 11.5735C4.17738 12.3699 4.66852 13.0913 5.28662 13.6951L9.99996 18.3326L14.7141 13.6951C15.3322 13.0913 15.8234 12.3699 16.1587 11.5735C16.494 10.7771 16.6668 9.92175 16.6668 9.05764C16.6668 8.19352 16.494 7.33813 16.1587 6.54173C15.8234 5.74533 15.3322 5.024 14.7141 4.42014ZM9.99996 11.2493C9.44329 11.2493 8.92079 11.0326 8.52662 10.6393C8.13641 10.2483 7.91727 9.7184 7.91727 9.16597C7.91727 8.61354 8.13641 8.08368 8.52662 7.69264C8.91996 7.2993 9.44329 7.08264 9.99996 7.08264C10.5566 7.08264 11.08 7.2993 11.4733 7.69264C11.8635 8.08368 12.0826 8.61354 12.0826 9.16597C12.0826 9.7184 11.8635 10.2483 11.4733 10.6393C11.08 11.0326 10.5566 11.2493 9.99996 11.2493Z" fill="#230448"/>
</svg>
