<svg width="24" height="24" viewBox="0 0 24 24" stroke="currentColor" fill="none" xmlns="http://www.w3.org/2000/svg">
<path d="M7.3895 16.5388C6.00096 15.5596 4.96025 14.1638 4.41813 12.5535C3.87602 10.9432 3.86067 9.20216 4.3743 7.58258C4.88793 5.96299 5.90387 4.549 7.27492 3.54547C8.64597 2.54193 10.3009 2.00098 12 2.00098C13.6991 2.00098 15.354 2.54193 16.7251 3.54547C18.0961 4.549 19.1121 5.96299 19.6257 7.58258C20.1393 9.20216 20.124 10.9432 19.5819 12.5535C19.0398 14.1638 17.999 15.5596 16.6105 16.5388L18.6935 21.2988C18.727 21.375 18.7409 21.4583 18.734 21.5413C18.7271 21.6242 18.6996 21.7041 18.654 21.7737C18.6084 21.8433 18.5462 21.9005 18.4729 21.94C18.3997 21.9794 18.3177 22 18.2345 21.9998H5.7645C5.68142 21.9999 5.59961 21.9794 5.52648 21.9399C5.45334 21.9005 5.39119 21.8435 5.34563 21.774C5.30007 21.7045 5.27255 21.6248 5.26554 21.542C5.25853 21.4592 5.27227 21.376 5.3055 21.2998L7.3895 16.5388ZM14.1245 15.8458L15.4565 14.9048C16.4982 14.1706 17.2791 13.1238 17.686 11.916C18.0929 10.7083 18.1046 9.40235 17.7195 8.18747C17.3344 6.97259 16.5725 5.91189 15.5442 5.15908C14.5158 4.40627 13.2745 4.00047 12 4.00047C10.7255 4.00047 9.4842 4.40627 8.45585 5.15908C7.4275 5.91189 6.66557 6.97259 6.28047 8.18747C5.89537 9.40235 5.90712 10.7083 6.314 11.916C6.72089 13.1238 7.50177 14.1706 8.5435 14.9048L9.8745 15.8458L8.0575 19.9998H15.9415L14.1245 15.8458ZM8.1185 10.9698L10.0585 10.4848C10.1662 10.9182 10.4158 11.303 10.7675 11.5781C11.1193 11.8532 11.553 12.0026 11.9995 12.0026C12.446 12.0026 12.8797 11.8532 13.2315 11.5781C13.5832 11.303 13.8328 10.9182 13.9405 10.4848L15.8805 10.9698C15.663 11.8343 15.163 12.6014 14.4599 13.1495C13.7569 13.6975 12.8909 13.9952 11.9995 13.9952C11.1081 13.9952 10.2421 13.6975 9.53907 13.1495C8.836 12.6014 8.33605 11.8343 8.1185 10.9698Z" fill="none" fill-opacity="0.8"/>
</svg>
