<svg width="18" height="16" viewBox="0 0 18 16" fill="none" xmlns="http://www.w3.org/2000/svg">
<path fill-rule="evenodd" clip-rule="evenodd" d="M5.857 15.6335C4.49618 15.6335 3.21618 15.1035 2.25368 14.141C0.267002 12.1543 0.267002 8.92097 2.25368 6.93433L9.0495 0.138428L10.1104 1.20011L3.3145 7.99511C1.91286 9.39761 1.91286 11.6784 3.3145 13.0801C3.99368 13.7592 4.897 14.1334 5.857 14.1334C6.817 14.1334 7.72036 13.7592 8.3995 13.0801L15.1229 6.35675C15.9587 5.52093 15.9587 4.16175 15.1229 3.32593C14.3129 2.51511 12.9004 2.51761 12.092 3.32511L5.50786 9.90425C5.3695 10.0426 5.29368 10.2267 5.29368 10.4226C5.29368 10.6185 5.3695 10.8026 5.50868 10.9409C5.78536 11.2201 6.2695 11.2184 6.54618 10.9409L12.0737 5.41425L13.1345 6.47593L7.60786 12.0026C6.73536 12.8734 5.31868 12.8717 4.44786 12.0026C3.577 11.1317 3.577 9.71343 4.44786 8.84343L11.032 2.26515C11.7186 1.57765 12.6345 1.19847 13.6078 1.19847C14.5803 1.19847 15.4953 1.57679 16.1845 2.26515C17.6045 3.68597 17.6045 5.99765 16.1845 7.41847L9.46036 14.141C8.49786 15.1035 7.21868 15.6335 5.857 15.6335Z" fill="white"/>
</svg>
